# xmcd
#
# Track frame offsets:
# 150
# 1839
# 20515
# 38358
# 61465
# 78479
# 102854
# 124161
# 143385
# 162564
# 182127
# 200021
# 217913
# 239423
# 256322
# 272893
# 290117
# 297956
#
# Disc length: 3997 seconds
#
#
# Revision: 0
# Processed by: cddbd v1.5PL3 Copyright (c) Steve Scherf et al.
# Submitted via: FreeRIP 2.70 
#
DISCID=060f9b12
DTITLE=CEE-LO - The Soul Machine
DYEAR=2004
DGENRE=Soul
TTITLE0=Intro
TTITLE1=Soul machine
TTITLE2=The art of noise
TTITLE3=Living Again
TTITLE4=I'll be around
TTITLE5=The One
TTITLE6=My kind of people
TTITLE7=Childz play
TTITLE8=I am selling soul
TTITLE9=All day love affair
TTITLE10=Evening News
TTITLE11=Scrap Metal
TTITLE12=Glockapella
TTITLE13=When we were friends
TTITLE14=Sometimes
TTITLE15=Let's stay Togheter
TTITLE16=Die trying
TTITLE17=What don't you do
EXTD=
EXTT0=
EXTT1=
EXTT2=
EXTT3=
EXTT4=
EXTT5=
EXTT6=
EXTT7=
EXTT8=
EXTT9=
EXTT10=
EXTT11=
EXTT12=
EXTT13=
EXTT14=
EXTT15=
EXTT16=
EXTT17=
PLAYORDER=
